HIERARCHY
ROOT root
{
	OFFSET	0	13.1	24.9
	CHANNELS 6  Xposition Yposition Zposition Xrotation Yrotation Zrotation
	JOINT spine_1
	{
		OFFSET	0	9.99999	0
		CHANNELS 3  Xrotation Yrotation Zrotation
		JOINT spine_2
		{
			OFFSET	0	112	-10
			CHANNELS 3  Xrotation Yrotation Zrotation
			JOINT spine_3
			{
				OFFSET	0	206.5	19.3
				CHANNELS 3  Xrotation Yrotation Zrotation
				JOINT spine_4
				{
					OFFSET	0	110.4	14.6
					CHANNELS 3  Xrotation Yrotation Zrotation
					JOINT neck_1
					{
						OFFSET	0	71.8	-50.3
						CHANNELS 3  Xrotation Yrotation Zrotation
						JOINT neck_2
						{
							OFFSET	0	86.2	-25.8
							CHANNELS 3  Xrotation Yrotation Zrotation
							JOINT head_ee
							{
								OFFSET	0	179.8	-8.7
								CHANNELS 3  Xrotation Yrotation Zrotation
								End Site
								{
									OFFSET	1	0	0
								}
							}
						}
					}
					JOINT left_clavicle
					{
						OFFSET	-43.2	22.4	-70.8
						CHANNELS 3  Xrotation Yrotation Zrotation
						JOINT left_shoulder
						{
							OFFSET	-93.9	-5.79999	48.7
							CHANNELS 3  Xrotation Yrotation Zrotation
							JOINT left_elbow
							{
								OFFSET	-291.4	-30.8	15.2
								CHANNELS 3  Xrotation Yrotation Zrotation
								JOINT left_lowarm_twist
								{
									OFFSET	-110.7	-3.89999	13.6
									CHANNELS 3  Xrotation Yrotation Zrotation
									JOINT left_hand
									{
										OFFSET	-110.7	-3.89999	13.6
										CHANNELS 3  Xrotation Yrotation Zrotation
										JOINT left_ee
										{
											OFFSET	-80.8	-5.10001	12.1
											CHANNELS 3  Xrotation Yrotation Zrotation
											End Site
											{
												OFFSET	1	0	0
											}
										}
									}
								}
							}
						}
					}
					JOINT right_clavicle
					{
						OFFSET	43.2	22.4	-70.8
						CHANNELS 3  Xrotation Yrotation Zrotation
						JOINT right_shoulder
						{
							OFFSET	93.9	-5.79999	48.7
							CHANNELS 3  Xrotation Yrotation Zrotation
							JOINT right_elbow
							{
								OFFSET	291.4	-30.8	15.2
								CHANNELS 3  Xrotation Yrotation Zrotation
								JOINT right_lowarm_twist
								{
									OFFSET	110.7	-3.89999	13.6
									CHANNELS 3  Xrotation Yrotation Zrotation
									JOINT right_hand
									{
										OFFSET	110.7	-3.89999	13.6
										CHANNELS 3  Xrotation Yrotation Zrotation
										JOINT right_ee
										{
											OFFSET	80.8	-5.10001	12.1
											CHANNELS 3  Xrotation Yrotation Zrotation
											End Site
											{
												OFFSET	1	0	0
											}
										}
									}
								}
							}
						}
					}
				}
			}
		}
	}
	JOINT left_hip
	{
		OFFSET	-82.8	-127.5	0.300001
		CHANNELS 3  Xrotation Yrotation Zrotation
		JOINT left_knee
		{
			OFFSET	-28.2	-396.7	2.2
			CHANNELS 3  Xrotation Yrotation Zrotation
			JOINT left_ankle
			{
				OFFSET	-11.7	-411.3	35.4
				CHANNELS 3  Xrotation Yrotation Zrotation
				JOINT left_toes
				{
					OFFSET	0	-60	-88.6
					CHANNELS 3  Xrotation Yrotation Zrotation
					JOINT left_foot_ee
					{
						OFFSET	-22.5	-16.5	-42.2
						CHANNELS 3  Xrotation Yrotation Zrotation
						End Site
						{
							OFFSET	1	0	0
						}
					}
				}
			}
		}
	}
	JOINT right_hip
	{
		OFFSET	82.8	-127.5	0.300001
		CHANNELS 3  Xrotation Yrotation Zrotation
		JOINT right_knee
		{
			OFFSET	28.2	-396.7	2.2
			CHANNELS 3  Xrotation Yrotation Zrotation
			JOINT right_ankle
			{
				OFFSET	11.7	-411.3	35.4
				CHANNELS 3  Xrotation Yrotation Zrotation
				JOINT right_toes
				{
					OFFSET	0	-60	-88.6
					CHANNELS 3  Xrotation Yrotation Zrotation
					JOINT right_foot_ee
					{
						OFFSET	22.5	-16.5	-42.2
						CHANNELS 3  Xrotation Yrotation Zrotation
						End Site
						{
							OFFSET	1	0	0
						}
					}
				}
			}
		}
	}
}
MOTION
Frames: 8
Frame Time: 0.02
3177.02 653.055 -1669.29 -37.3738792989 75.0751843268 39.6044271564 1.93223 0.304 0.36039 1.93226 0.280452 0.379004 1.93414 0.208921 0.422669 1.934 0.273051 0.38437 -6.87108 17.3286 -0.733466 -6.85316 32.7581 2.82278 -0.0 0.0 -0.0 6.49278 22.9386 11.7629 -18.143 14.3238 60.131 0.265676 -7.49767 0.0174079 -74.5123 -7.12256 5.31991 4.76413 31.1766 41.1625 -0.0 0.0 -0.0 12.7998 12.8539 -26.0875 2.64899 49.2113 -58.6293 0.662111 18.1591 -0.105811 -70.3999 6.59707 -5.30567 -11.6045 -32.7371 59.7713 0.0 0.0 0.0 35.6222 -9.74022 -11.4707 -8.16579 0.249089 1.22739 -3.03021 0.659275 0.450679 -37.4098 0.0 0.0 -0.0 0.0 -0.0 2.6789 -50.8907 8.5351 -11.3248 -0.298146 -1.70959 36.7984 33.8487 5.88282 -5.10123 0.0 0.0 0.0 0.0 0.0 
3154.59649996 647.392 -1662.92359239 -39.0422349446 74.481251609 41.6364739753 2.0256 0.189171 0.299695 2.02563 0.169717 0.311125 2.02657 0.112493 0.336077 2.02645 0.164158 0.314094 -3.87149 16.2604 -1.78507 -3.48866 31.1182 0.662391 -0.0 0.0 -0.0 6.07837 24.0568 11.0907 -18.9972 12.69 61.6631 0.439829 -12.2916 0.0473601 -74.8459 -7.16519 5.31939 4.89644 31.0014 42.1728 -0.0 0.0 -0.0 12.6699 13.0215 -25.7854 2.36268 48.5518 -59.108 0.661049 18.1319 -0.105481 -69.0747 6.428 -5.29299 -11.483 -32.6765 58.39 0.0 0.0 0.0 36.299 -9.97134 -11.6388 -9.55948 0.27401 1.43979 -4.90814 1.45584 0.731431 -36.5751 0.0 0.0 -0.0 0.0 -0.0 2.52876 -48.9281 8.97085 -12.4477 -0.309168 -1.88152 36.619 33.5423 5.83798 -2.9374 0.0 0.0 0.0 0.0 0.0 
3129.88336312 643.066 -1652.30678583 -39.6972099607 74.7850917109 42.5572622764 2.04297 -0.049148 0.249882 2.043 -0.064949 0.246248 2.04271 -0.107087 0.231061 2.04265 -0.0692511 0.245073 -2.43339 13.9425 -1.95254 -2.02804 26.8113 -0.195522 -0.0 0.0 -0.0 5.88766 24.9062 10.7674 -20.5401 11.4752 64.0351 0.65695 -18.0267 0.104209 -75.7904 -7.28582 5.31659 4.84048 31.3805 41.7402 -0.0 0.0 -0.0 11.6897 13.4604 -23.5362 2.51309 47.2525 -61.3702 0.693731 18.9655 -0.115878 -67.2756 6.19893 -5.2695 -11.2683 -32.4396 56.4292 0.0 0.0 0.0 36.9441 -10.5677 -10.7239 -14.558 0.320759 2.20508 -2.83235 3.64514 0.418629 -34.866 0.0 0.0 -0.0 0.0 -0.0 2.22176 -45.4033 9.95747 -15.7199 -0.322051 -2.38333 35.2593 34.1357 5.73346 1.16335 -0.0 -0.0 0.0 0.0 0.0 
3129.96206151 643.066 -1652.08992661 -40.3252429086 74.9871577163 43.2077960677 2.04297 -0.049148 0.249882 2.043 -0.064949 0.246248 2.04271 -0.107087 0.231061 2.04265 -0.0692511 0.245073 -2.43339 13.9425 -1.95254 -2.02804 26.8113 -0.195522 -0.0 0.0 -0.0 5.88766 24.9062 10.7674 -20.5401 11.4752 64.0351 0.65695 -18.0267 0.104209 -75.7904 -7.28582 5.31659 4.84048 31.3805 41.7402 -0.0 0.0 -0.0 11.6897 13.4604 -23.5362 2.51309 47.2525 -61.3702 0.693731 18.9655 -0.115878 -67.2756 6.19893 -5.2695 -11.2683 -32.4396 56.4292 0.0 0.0 0.0 36.9441 -10.5677 -10.7239 -14.558 0.320759 2.20508 -2.83235 3.64514 0.418629 -34.866 0.0 0.0 -0.0 0.0 -0.0 2.22176 -45.4033 9.95747 -15.7199 -0.322051 -2.38333 35.2593 34.1357 5.73346 1.16335 -0.0 -0.0 0.0 0.0 0.0 
3080.0098133 652.84 -1631.14429413 -37.8362246578 74.9691592095 39.8747450253 1.89998 -0.454177 0.103391 1.89986 -0.459835 0.0742806 1.89926 -0.465717 -0.00859636 1.89956 -0.46123 0.0650644 0.226038 13.874 0.315455 0.689813 24.4762 1.68464 -0.0 0.0 -0.0 6.17028 24.9681 11.1506 -21.5392 10.6896 67.083 0.98702 -26.0554 0.22838 -76.1993 -7.33801 5.31475 4.89043 30.1678 42.1267 -0.0 0.0 -0.0 11.7365 12.1864 -23.6673 -3.31292 45.8128 -59.9466 0.647223 17.7767 -0.101219 -64.3573 5.82908 -5.21603 -10.7798 -32.0256 52.1249 0.0 0.0 0.0 34.6539 -9.89122 -7.19141 -18.5207 0.31031 2.81286 1.15198 8.90401 -0.168118 -35.289 0.0 0.0 -0.0 0.0 -0.0 2.69402 -29.8087 11.4178 -23.3065 -0.241741 -3.54381 25.6212 26.6154 4.06235 5.25579 -0.0 -0.0 0.0 0.0 0.0 
3054.30209473 659.918 -1609.98918865 -35.7314956046 74.8090425469 35.0181507161 1.87998 -0.279816 0.319847 1.87999 -0.299602 0.301393 1.87839 -0.348472 0.24324 1.87844 -0.305684 0.295222 -1.13505 14.2247 2.49154 -0.797004 23.6069 4.29619 -0.0 0.0 -0.0 6.75507 25.1513 11.939 -21.7133 11.5964 68.8166 1.23629 -31.4829 0.348482 -78.1778 -7.59023 5.30057 4.39705 30.2102 38.4268 -0.0 0.0 -0.0 11.0526 8.66058 -22.1533 -4.59985 44.9207 -60.1888 0.667426 18.2952 -0.107474 -63.8732 5.768 -5.20534 -10.3625 -31.3868 49.3512 0.0 0.0 0.0 33.2275 -3.77465 -2.77092 -19.992 0.295735 3.03813 10.6079 11.772 -1.50816 -36.3782 0.0 0.0 -0.0 0.0 -0.0 2.35844 -5.48992 12.6553 -35.7009 0.216154 -5.3871 18.2086 -6.1641 2.50669 18.5193 -0.0 -0.0 0.0 0.0 0.0 
3054.57406244 659.918 -1609.42963852 -36.3020565986 75.0205887921 35.609073622 1.87998 -0.279816 0.319847 1.87999 -0.299602 0.301393 1.87839 -0.348472 0.24324 1.87844 -0.305684 0.295222 -1.13505 14.2247 2.49154 -0.797004 23.6069 4.29619 -0.0 0.0 -0.0 6.75507 25.1513 11.939 -21.7133 11.5964 68.8166 1.23629 -31.4829 0.348482 -78.1778 -7.59023 5.30057 4.39705 30.2102 38.4268 -0.0 0.0 -0.0 11.0526 8.66058 -22.1533 -4.59985 44.9207 -60.1888 0.667426 18.2952 -0.107474 -63.8732 5.768 -5.20534 -10.3625 -31.3868 49.3512 0.0 0.0 0.0 33.2275 -3.77465 -2.77092 -19.992 0.295735 3.03813 10.6079 11.772 -1.50816 -36.3782 0.0 0.0 -0.0 0.0 -0.0 2.35844 -5.48992 12.6553 -35.7009 0.216154 -5.3871 18.2086 -6.1641 2.50669 18.5193 -0.0 -0.0 0.0 0.0 0.0 
3054.40916039 659.918 -1609.76813418 -35.9548159677 74.8927421037 35.2495110001 1.87998 -0.279816 0.319847 1.87999 -0.299602 0.301393 1.87839 -0.348472 0.24324 1.87844 -0.305684 0.295222 -1.13505 14.2247 2.49154 -0.797004 23.6069 4.29619 -0.0 0.0 -0.0 6.75507 25.1513 11.939 -21.7133 11.5964 68.8166 1.23629 -31.4829 0.348482 -78.1778 -7.59023 5.30057 4.39705 30.2102 38.4268 -0.0 0.0 -0.0 11.0526 8.66058 -22.1533 -4.59985 44.9207 -60.1888 0.667426 18.2952 -0.107474 -63.8732 5.768 -5.20534 -10.3625 -31.3868 49.3512 0.0 0.0 0.0 33.2275 -3.77465 -2.77092 -19.992 0.295735 3.03813 10.6079 11.772 -1.50816 -36.3782 0.0 0.0 -0.0 0.0 -0.0 2.35844 -5.48992 12.6553 -35.7009 0.216154 -5.3871 18.2086 -6.1641 2.50669 18.5193 -0.0 -0.0 0.0 0.0 0.0 
